<svg id="Calque_1" data-name="Calque 1" xmlns="http://www.w3.org/2000/svg" viewBox="0 0 110.48 125.3"><path d="M18.81,114.12,8.76,1.35H119.24L109.18,114.11,63.93,126.65Z" transform="translate(-8.76 -1.35)" style="fill:#1572b6"/><path d="M64,117.06l36.56-10.13,8.6-96.36H64Z" transform="translate(-8.76 -1.35)" style="fill:#33a9dc"/><path d="M64,51.43H82.3l1.27-14.16H64V23.43H98.68l-.33,3.72L95,65.26H64Z" transform="translate(-8.76 -1.35)" style="fill:#fff"/><path d="M64.08,87.35l-.06,0-15.4-4.16-1-11H33.75l1.94,21.71L64,101.76l.06,0Z" transform="translate(-8.76 -1.35)" style="fill:#ebebeb"/><path d="M81.13,64.68,79.46,83.2,64,87.36v14.39l28.36-7.86.21-2.33L95,64.68Z" transform="translate(-8.76 -1.35)" style="fill:#fff"/><path d="M64.05,23.43V37.27H30.64l-.28-3.11-.63-7-.33-3.72Zm0,28V65.26H48.79l-.28-3.11-.63-7-.33-3.71Z" transform="translate(-8.76 -1.35)" style="fill:#ebebeb"/></svg>