<svg id="Calque_1" data-name="Calque 1" xmlns="http://www.w3.org/2000/svg" viewBox="0 0 451 512"><path d="M71,460,30,0H481L440,460,255,512" transform="translate(-30)" style="fill:#e34f26"/><path d="M256,472l149-41L440,37H256" transform="translate(-30)" style="fill:#ef652a"/><path d="M256,208H181l-5-58h80V94H114l15,171H256Zm-1,147-63-17-4-45H132l7,89,116,32Z" transform="translate(-30)" style="fill:#ebebeb"/><path d="M255,208v57h70l-7,73-63,17v59l116-32,16-174Zm0-114v56H392l5-56Z" transform="translate(-30)" style="fill:#fff"/></svg>