<svg id="Calque_1" data-name="Calque 1" xmlns="http://www.w3.org/2000/svg" viewBox="0 0 110.08 125.3"><path d="M64,51.43H82.3l1.27-14.16H64V23.43H98.68l-.33,3.72L95,65.26H64Z" transform="translate(-8.76 -1.35)" style="fill:#fff"/><path d="M64.08,87.35l-.06,0-15.4-4.16-1-11H33.75l1.94,21.71L64,101.76l.06,0Z" transform="translate(-8.76 -1.35)" style="fill:#ebebeb"/><path d="M81.13,64.68,79.46,83.2,64,87.36v14.39l28.36-7.86.21-2.33L95,64.68Z" transform="translate(-8.76 -1.35)" style="fill:#fff"/><path d="M64.05,23.43V37.27H30.64l-.28-3.11-.63-7-.33-3.72Zm0,28V65.26H48.79l-.28-3.11-.63-7-.33-3.71Z" transform="translate(-8.76 -1.35)" style="fill:#ebebeb"/><path id="path118" d="M8.94,1.75,9,3.14c0,.77,3.34,25.79,6,56.06l5.2,54.08,21.49,6.11c12.16,3.41,21.8,5.76,22.1,5.79s10.11-3.5,22.44-6.91c19.76-5.47,21.29-5.75,21.43-6.42.2-.95,9.51-107.24,9.5-108.42l-.11-.91L64,1.75Z" transform="translate(-8.76 -1.35)" style="fill:#fff"/><path id="path88" d="M41.36,119.48l-21.49-5.61-.43-1.15c-.26-1.47-8.89-108.24-8.89-109.65,0-.52,3.49-.87,53.25-.87,52.53,0,53.48-.45,53.48.17,0,2.66-8.85,110.61-9.1,110.83s-43.35,12.38-44.8,12.59c-.4.06-8.81-2.44-21.09-5.87ZM77.87,98.75c7.5-2.07,13.75-3.87,13.88-4s1-9,2-19.76,1.8-20.24,1.92-21.1l.21-1.58H63.43V66.07H80.94l-.18.83c-.09.46-.47,4.41-.83,8.79-.37,4.64-.83,8.13-1.08,8.38a61.94,61.94,0,0,1-7.92,2.43l-7.49,2v7c0,4.79.13,7,.4,7s6.54-1.69,14-3.76ZM95.62,43.66c-.25-1.83-2.45-26.27-2.45-27.19,0-.56-1.29-.61-14.68-.61H63.8V30.25l6.61.24c3.63.14,7.45.35,8.49.47l1.89.22.46,5.63c.25,3.1.55,6.25.67,7l.21,1.4h13.7Z" transform="translate(-8.76 -1.35)" style="fill:#eaebec"/><path id="path80" d="M40.75,120.42l-22.11-6.2-4.92-55C11,28.91,8.79,3.51,8.78,2.75l0-1.4H118.84v.84c0,1.17-9.67,110.37-9.86,111.31-.15.68-2.81,1.51-22.58,7-12.32,3.42-22.66,6.19-23,6.17S52.92,123.82,40.75,120.42ZM77.89,99c7.64-2.12,14-4,14.14-4.25s1-9.56,2-20.77,1.87-20.68,2-21c.17-.61-1.13-.65-23.57-.65H48.7l1-10.69c.56-5.87,1-10.71,1-10.73s3.51-.12,7.75-.24c7-.19,21.31.36,21.78.84.18.18,1.36,11.76,1.36,13.34,0,.78.11.79,7.21.79h7.2L95.88,44c-.09-.87-.7-7.6-1.35-15L93.34,15.67l-27.79-.09c-22.11-.08-27.8,0-27.8.37s-.16,1.89-.36,3.63c-.47,4.21-4.1,44.86-4.1,46v.89H80.6l-.21,1.39c-.12.77-.49,4.65-.82,8.65A66.59,66.59,0,0,1,78.73,84c-.34.33-14.26,4.05-15.12,4-.41,0-4-.9-8-2l-7.25-2L48.1,80.9c-.14-1.71-.37-4.16-.49-5.45l-.22-2.32H33.31v1.39c0,2.61,1.71,20.18,2,20.43s27.31,7.88,28.14,7.91c.31,0,6.81-1.72,14.46-3.85Z" transform="translate(-8.76 -1.35)" style="fill:#f0be25"/><path id="path78" d="M40.75,120.42l-22.11-6.2-4.92-55C11,28.91,8.79,3.51,8.78,2.75l0-1.4H118.84v.84c0,1.17-9.67,110.37-9.86,111.31-.15.68-2.81,1.51-22.58,7-12.32,3.42-22.66,6.19-23,6.17S52.92,123.82,40.75,120.42ZM82,112.13c9.73-2.69,17.86-5.07,18.1-5.3s8.75-92.45,8.71-95.53v-1h-45v5.2h-13c-10.17,0-13,.11-13,.47s-.16,1.89-.36,3.63c-.47,4.2-4.09,44.85-4.09,46v.89H63.8V77.22c0,8.38-.1,10.78-.46,10.76s-3.73-.9-7.72-2l-7.25-2-.27-3.12c-.14-1.72-.37-4.16-.49-5.45l-.22-2.33H33.31v1.4c0,4,1.77,20.27,2.18,20.52.24.15,6.71,2,14.37,4.13L63.8,103v7a50.68,50.68,0,0,0,.25,7c.13,0,8.21-2.2,17.94-4.88ZM49.67,41.71c.54-5.83,1-10.66,1.14-10.74s3-.22,6.58-.32l6.41-.18V52.3H48.71Z" transform="translate(-8.76 -1.35)" style="fill:#e4a126"/></svg>