<svg id="Calque_1" data-name="Calque 1" xmlns="http://www.w3.org/2000/svg" viewBox="0 0 2500.04 2500"><circle cx="1232.7" cy="1226.52" r="1203.87" style="fill:#fff"/><path d="M1250.05,2500C557.32,2500-5.18,1947.9.05,1250S531.3,0,1250.05,0s1250,562.5,1250,1250S1942.77,2500,1250.05,2500Zm369.77-192.72-354.15-953.13-333.35,974c244.83,57.32,411.48,72.9,687.5-20.85Zm-864.55-52.06L224,802.1c-73,156.25-88.52,286.47-99,447.9C130.27,1677.05,369.82,2067.68,755.27,2255.22ZM2369.87,1250c5.18-276-119.77-494.78-130.22-526,10.45,213.58-20.85,322.91-57.28,442.73l-364.6,1046.87C2276.12,1937.5,2364.6,1526,2375.05,1250Zm-1156.25-46.87-177.1-484.38L906.3,708.35c-52-36.47-20.85-93.75,15.62-93.75,234.38,15.62,364.55,15.62,599,0,57.32,0,72.9,83.35,5.17,93.75l-125,10.4,406.21,1197.9L2000,1260.4c10.45-286.43-67.72-317.68-171.87-526-83.35-161.48,5.22-317.73,166.7-322.91C1864.5,286.47,1598.93,130.22,1250,125S531.2,296.88,312.45,630.22l385.45-10.4c46.88,20.85,26,88.53,0,93.75L562.5,724,968.75,1942.72l244.87-739.59Z" transform="translate(-0.01 0)" style="fill:#21759b"/></svg>