<?xml version="1.0" encoding="utf-8"?>
<!-- Generator: Adobe Illustrator 25.2.0, SVG Export Plug-In . SVG Version: 6.00 Build 0)  -->
<svg version="1.1" id="Calque_1" xmlns="http://www.w3.org/2000/svg" xmlns:xlink="http://www.w3.org/1999/xlink" x="0px" y="0px"
	 viewBox="0 0 1170.9 162.8" style="enable-background:new 0 0 1170.9 162.8;" xml:space="preserve">
<style type="text/css">
	.st0{fill:#FCF0E7;}
</style>
<path class="st0" d="M1170.9,162.8l-21.1-90.9c-11.4-49.2-56.8-78.5-109.7-70.6L808.8,35.5c-7.4,1.1-14.9,1.5-22.4,1.1l-179.4-9
	c-2.4-0.1-4.8-0.3-7.1-0.6l-161-19c-9-1-18.2-1-27.2,0.2L375,12.9c-6.5,0.8-12.9,2.2-19.2,4.1L177.5,69.8c-4.3,1.3-8.5,2.7-12.6,4.4
	L14.3,136.1l0,0c-4.9,2.2-9.7,4.6-14.3,7.4v19.4H1170.9z"/>
</svg>
