<svg id="Calque_1" data-name="Calque 1" xmlns="http://www.w3.org/2000/svg" viewBox="0 0 219.98 153.48"><path d="M746,767l-7.65-27.2a12.84,12.84,0,0,0-9.78-10.53l-55.73-13a12.82,12.82,0,0,0-7.18.4l-11.79,4.15a14.42,14.42,0,0,1-1.59.45l-99.69,21.23a12.83,12.83,0,0,0-9.94,14.88l1.31,7.05c.08.43.14.86.19,1.29l5.89,50a12.81,12.81,0,0,0,5.35,9l60.21,42.38a12.82,12.82,0,0,0,7.76,2.34l88.4-2.63a12.87,12.87,0,0,0,8.93-4c9.24-9.7,27.83-21.22,37.69-35.34a22.28,22.28,0,0,0,2.51-20.86C756.44,795.18,748.77,775.31,746,767Z" transform="translate(-542.43 -715.95)" style="fill:#24ddfc"/></svg>