<svg id="Calque_1" data-name="Calque 1" xmlns="http://www.w3.org/2000/svg" viewBox="0 0 270.66 277.69"><path d="M35.44,271.17C89.88,214.42,200.27,98.52,263.77,31.82c15.75-16.55,21-33,7.52-23.83l-.77.53C244.82,26.09,146.41,117.64,131.16,134,120.45,145.5,91.59,174,75.4,189.82c-7,6.85-13.59,15.52-17,22.28l-39.6,61.5C12,287.22,21.34,285.87,35.44,271.17Z" transform="translate(-8.31 -5.36)" style="fill:#fcf0e7"/><path d="M267.55,259.62C212.28,203.71,99.38,90.34,34.4,25.13,18.28,9,2,3.33,10.79,17l.51.78C28.18,43.91,112.93,151.33,128.87,167c11.21,11,38.87,40.59,54.31,57.19,6.66,7.16,15.15,14,21.81,17.56l64.55,34.53C283,283.46,281.86,274.09,267.55,259.62Z" transform="translate(-8.31 -5.36)" style="fill:#fcf0e7"/></svg>