<svg id="Calque_1" data-name="Calque 1" xmlns="http://www.w3.org/2000/svg" viewBox="0 0 278.23 166.05"><path d="M1685.64,570.06,1655,612.89l-.34.45c-2.24,2.7-25.72,30.85-41.55,41.56-16.65,11.25-67.39,27.48-90.36,31.92-19.86,3.83-38.17,6.39-42.75,7a8.37,8.37,0,0,1-2.18,0c-3-.39-11.06-1.44-11.76-1.41s-39.56-24-44.88-27.25a8.17,8.17,0,0,1-1.16-.87l-8.26-7.4a8.35,8.35,0,0,1,1.86-13.69h0c.24-.12.47-.25.7-.39,4-2.59,42.81-27.51,43.1-28.62S1530,551.07,1542.92,540a8.34,8.34,0,0,1,4.56-2l96.3-10.1a8.3,8.3,0,0,1,6.26,1.94l34.22,29A8.33,8.33,0,0,1,1685.64,570.06Z" transform="translate(-1408.97 -527.86)" style="fill:#2b1a13"/></svg>