<svg id="Calque_1" data-name="Calque 1" xmlns="http://www.w3.org/2000/svg" viewBox="0 0 589.35 386.98"><path d="M710,776.08l-34.66,52.66a41.46,41.46,0,0,0-2.25,3.87L648.5,881.08h0a40,40,0,0,0,11.27,48.37c11.24,8.91,23.92,18.19,32.34,22,16.84,7.63,100.78,13,114.11,13.77,1.24.08,2.46.09,3.71,0,9.14-.33,48.26-2.13,64.18-9.75,12.5-6,39.95-13.36,59.85-15.26a40.88,40.88,0,0,1,27.1,6.89c21.89,15.07,79.75,43.53,90.13,43.83,25,.7,65-23.88,78.7-32.43,22.13-13.86,83.26-60.82,84.37-61.54s18.47-7.36,19.55-37.82-2.06-34.2-8-39.54c-4.92-4.43-72.17-53.87-94.82-70.5a40,40,0,0,1-11.7-13.55l-16.6-31.39a40.1,40.1,0,0,0-16.17-16.4L982.07,630.61l-40.25-21.77a40.06,40.06,0,0,0-48.89,8.5l-54.09,60.37A39.72,39.72,0,0,1,833,683l-51.48,38.57q-1,.76-2.1,1.47l-49.09,32.09a39.85,39.85,0,0,0-7.38,6.21l-8.77,9.41A39.37,39.37,0,0,0,710,776.08Z" transform="translate(-644.68 -604.02)" style="fill:#2b1a13"/></svg>