<svg id="Calque_1" data-name="Calque 1" xmlns="http://www.w3.org/2000/svg" viewBox="0 0 209.06 206.65"><path d="M1167.15,297.53A8.32,8.32,0,0,1,1176,307c-3.84,26.31-13.72,94-13.78,94.17s-.54,14.06-.75,20.14a8.3,8.3,0,0,1-1.89,5L1132,459.94l-18.36,23a8.42,8.42,0,0,1-3.19,2.44c-8.15,3.55-40.52,17.12-59.41,17.37-21.75.29-39,3.59-59.66-1.09a155.12,155.12,0,0,1-19-5.34,8.3,8.3,0,0,1-5.31-9l1.14-7.81a9.49,9.49,0,0,1,.22-1.06,424.52,424.52,0,0,1,16.3-46.58,300.46,300.46,0,0,1,21.42-40.48c3.44-4.87,21.12-31.71,21.12-31.71l2.85,1.33,21.36-12,.59-.36L1083,327.87c.18-.12.33-.21.51-.31,3.24-1.86,37.66-21.51,39.22-22.67s27.29-6.37,28-6.26C1151.17,298.7,1159.8,298.08,1167.15,297.53Z" transform="translate(-967.05 -297.51)" style="fill:#2b1a13"/></svg>