<svg id="Calque_1" data-name="Calque 1" xmlns="http://www.w3.org/2000/svg" viewBox="0 0 758.09 902.18"><path d="M710,776.08l-34.66,52.66a41.46,41.46,0,0,0-2.25,3.87L648.5,881.08h0a40,40,0,0,0,11.27,48.37c11.24,8.91,23.92,18.19,32.34,22,16.84,7.63,100.78,13,114.11,13.77,1.24.08,2.46.09,3.71,0,9.14-.33,48.26-2.13,64.18-9.75,12.5-6,39.95-13.36,59.85-15.26a40.88,40.88,0,0,1,27.1,6.89c21.89,15.07,79.75,43.53,90.13,43.83,25,.7,65-23.88,78.7-32.43,22.13-13.86,83.26-60.82,84.37-61.54s18.47-7.36,19.55-37.82-2.06-34.2-8-39.54c-4.92-4.43-72.17-53.87-94.82-70.5a40,40,0,0,1-11.7-13.55l-16.6-31.39a40.1,40.1,0,0,0-16.17-16.4L982.07,630.61l-40.25-21.77a40.06,40.06,0,0,0-48.89,8.5l-54.09,60.37A39.72,39.72,0,0,1,833,683l-51.48,38.57q-1,.76-2.1,1.47l-49.09,32.09a39.85,39.85,0,0,0-7.38,6.21l-8.77,9.41A39.37,39.37,0,0,0,710,776.08Z" transform="translate(-540 -88.82)" style="fill:#fcf0e7"/><path d="M1183.75,526.35c6.37-5.8,19-19.12,28.62-29.53a14.46,14.46,0,0,1,23,2.38L1296,599.61a14.47,14.47,0,0,1,.37,14.31l-67.54,126.15a14.5,14.5,0,0,1-7.41,6.61l-3.1,1.23a14.44,14.44,0,0,1-13.24-1.32l-42-27.38a14.49,14.49,0,0,1-6.47-13.82l7.5-63.6,15-106.69A14.57,14.57,0,0,1,1183.75,526.35Z" transform="translate(-540 -88.82)" style="fill:#fcf0e7"/><path d="M1016.13,329.67l42.15-32a15.63,15.63,0,0,1,17.88-.73A128.21,128.21,0,0,1,1093,310.2c15.13,13.76,42.22,44.7,51.75,55.71a15.5,15.5,0,0,1,3.77,9.32c.68,12.42,1.83,44.65-2.15,77.14-4.53,37.05-20,75.71-24.81,87a15.46,15.46,0,0,1-3.64,5.23,22.12,22.12,0,0,1-13,6.4c-7.78,1.07-41.22,4.64-61.9,6.61A15.65,15.65,0,0,1,1025.83,542v-.09c0-.37,0-.72,0-1.08l-14.3-187c0-.38-.07-.76-.13-1.13l-1.24-8.28A15.62,15.62,0,0,1,1016.13,329.67Z" transform="translate(-540 -88.82)" style="fill:#fcf0e7"/><path d="M878.3,266.87a8.33,8.33,0,0,1,13-.44c17.3,20.19,61.77,72.1,61.9,72.29s10.24,9.65,14.68,13.8a8.27,8.27,0,0,1,2.52,4.71l7.2,42.88,5.26,29a8.22,8.22,0,0,1-.25,4c-2.69,8.48-13.74,41.79-26,56.2-14.08,16.58-22.92,31.72-40,44.24a154.75,154.75,0,0,1-16.49,10.77,8.31,8.31,0,0,1-10.27-1.92l-5.13-6a9.05,9.05,0,0,1-.66-.87,426,426,0,0,1-24.39-42.91,301.39,301.39,0,0,1-16.42-42.75c-1.41-5.78-10-36.75-10-36.75l2.87-1.28,5-24c0-.22.08-.45.11-.68l4.61-37c0-.2,0-.38.09-.58.74-3.66,8.56-42.52,8.71-44.46s13.14-24.76,13.71-25.22C868.68,279.68,873.88,272.77,878.3,266.87Z" transform="translate(-540 -88.82)" style="fill:#fcf0e7"/><path d="M744.86,620.6l-32.11-41.75c-.12-.15-.22-.29-.33-.45-1.93-2.92-22.08-33.55-27.74-51.81-5.94-19.19-6.78-72.46-4.37-95.72,2.08-20.12,4.94-38.39,5.67-43a8.13,8.13,0,0,1,.63-2.09c1.23-2.72,4.58-10.17,4.75-10.85s34.39-30.92,39.09-35.06a8.86,8.86,0,0,1,1.16-.85l9.48-5.76A8.34,8.34,0,0,1,753.65,339h0a7.49,7.49,0,0,0,.18.79c1.3,4.6,13.92,48.94,14.9,49.53S808.14,477.11,815,492.72a8.27,8.27,0,0,1,.56,4.93l-18.23,95.09a8.37,8.37,0,0,1-3.67,5.44L756,622.52A8.34,8.34,0,0,1,744.86,620.6Z" transform="translate(-540 -88.82)" style="fill:#fcf0e7"/><path d="M552.47,598.43h0c.94-.38-2.12,3.12,2.7-1.35S595.82,558,615.47,558s39.88,21,54.52,30.41A19.91,19.91,0,0,1,678.48,600l21.28,80.49a19.81,19.81,0,0,1-.79,12.56L673.43,756.2a20,20,0,0,1-11.7,11.26l-44.37,16c-.41.15-.81.31-1.21.48l-.25.11a19.91,19.91,0,0,1-26-9.78l-40.18-85.62a20.43,20.43,0,0,0-1.24-2.25L543.12,678a19.9,19.9,0,0,1-3.12-10.7V616.9A19.89,19.89,0,0,1,552.47,598.43Z" transform="translate(-540 -88.82)" style="fill:#fcf0e7"/><path d="M599.46,519.94l30.78,1a8.34,8.34,0,0,0,8.6-8.6l-2-62.65c-.27-8.75-12.13-11.21-15.88-3.3-2.44,5.16-4.16,9-4.06,9.45.31,1.44-18.77,65.38-18.77,65.38" transform="translate(-540 -88.82)" style="fill:#fcf0e7"/><path d="M769.77,280.15c5.85-24.53,17-74.45,23.39-103.17a7.49,7.49,0,0,0-12.33-7.19l-.31.28c-10.33,9.39-39.74,51.53-41,58.5-.88,4.91-5.31,17.52-7.87,24.57a8.35,8.35,0,0,0,1.94,8.74l22.16,22.21A8.33,8.33,0,0,0,769.77,280.15Z" transform="translate(-540 -88.82)" style="fill:#fcf0e7"/><path d="M889.42,174.46l1.8-4.64a8.53,8.53,0,0,1,.89-1.69l51.78-75.86a8.29,8.29,0,0,1,4-3.1l.91-.35s-13.81,32.57-18.19,63.43c-2.3,16.23-2.7,35.34-2.57,49.82a8.34,8.34,0,0,1-14.51,5.67L891,183.09A8.35,8.35,0,0,1,889.42,174.46Z" transform="translate(-540 -88.82)" style="fill:#fcf0e7"/><path d="M1018.15,140.24s18.48,23.47,24.57,52.67c5.85,28.06,8,27.33,8.87,39.37s-.93,28.48,1.63,29.45,24.86-1.93,40.88-3.22a12.66,12.66,0,0,0,11.42-15.17c-1.45-7-3.92-15.62-8.12-23.06-9-15.95-36-48.88-45-57.32s-30.48-24.79-31.71-25.26S1018.15,140.24,1018.15,140.24Z" transform="translate(-540 -88.82)" style="fill:#fcf0e7"/><path d="M1267.77,442.05a20.44,20.44,0,0,1,.7,2.43l2.59,18.81s1,7.55,1.63,17.78a8.8,8.8,0,0,1-15.84,5.82c-5.73-7.65-5.35-12-10.73-18.63-4.22-5.22-28.55-20.95-28.55-20.95l-2.81-2.43a7.55,7.55,0,0,1-1.45-1.69h0a8.73,8.73,0,0,1-1-6.92c2-7.62,6.39-25.13,5.55-32.4-1.09-9.42-8.4-37.22-10.6-44.9s-7.58-14.36-4.79-16.3,39.84,44.12,39.84,44.12S1260.6,415.51,1267.77,442.05Z" transform="translate(-540 -88.82)" style="fill:#fcf0e7"/></svg>