<svg id="Calque_1" data-name="Calque 1" xmlns="http://www.w3.org/2000/svg" viewBox="0 0 381.61 298.41"><path d="M20.66,36.9c78.61,2.36,238.62,6.58,330.68,9,22.83.6,38.53-6.57,22.72-10.39l-.91-.22C342.89,28,207.38,8.65,185,8.3c-15.72-.24-56.17-2.58-78.8-4-9.76-.59-20.63.31-27.91,2.33L7.72,26.2C-7,30.26.31,36.29,20.66,36.9Z" transform="translate(0.01 -4.17)" style="fill:#fcf0e7"/><path d="M359.89,142.63c-78.55-3-238.46-8.43-330.46-11.55-22.83-.78-38.57,6.27-22.8,10.21l.91.22C37.73,149,173,169.42,195.38,169.94c15.71.36,56.12,3,78.74,4.57,9.75.66,20.62-.16,27.92-2.11l70.7-19C387.45,149.48,380.23,143.4,359.89,142.63Z" transform="translate(0.01 -4.17)" style="fill:#fcf0e7"/><path d="M361,270.47c-78.58-3-238.53-8.44-330.56-11.56-22.83-.78-38.57,6.27-22.79,10.21l.9.22c30.2,7.53,165.54,27.91,187.89,28.44,15.71.36,56.14,3,78.76,4.57,9.76.66,20.63-.16,27.93-2.11l70.72-19C388.53,277.32,381.31,271.24,361,270.47Z" transform="translate(0.01 -4.17)" style="fill:#fcf0e7"/></svg>