<svg id="Calque_1" data-name="Calque 1" xmlns="http://www.w3.org/2000/svg" viewBox="0 0 355.76 162.22"><path d="M908.94,586.05l13-130.85,126.15,24-35.93,126.49-54.51,4.71" transform="translate(-692.33 -455.2)" style="fill:#e34f26"/><path d="M960.05,599.24l43.86-3.54,30.74-108.35-51.47-9.79" transform="translate(-692.33 -455.2)" style="fill:#ef652a"/><path d="M974.09,525.4l-21-4,1.68-16.49,22.38,4.25,3-15.66L940.43,486l-4.9,48.63,35.53,6.75ZM966,566.46l-16.72-8.1,1.28-12.8-15.67-3-2.77,25.26L962.85,583Z" transform="translate(-692.33 -455.2)" style="fill:#ebebeb"/><path d="M973.81,525.34l-3,15.95L990.36,545l-5.84,20L966,566.46,962.85,583,997,580.18l13.73-47.82Zm6.06-31.88-3,15.66,38.32,7.29,4.38-15.4Z" transform="translate(-692.33 -455.2)" style="fill:#fff"/><path d="M771.93,531.05l20.44-6.55-3.65-16.27-21.86,7-5-15.45,38.73-12.42,1,4.28,9.89,43.76-34.62,11.1Z" transform="translate(-692.33 -455.2)" style="fill:#fff"/><path d="M784.87,571.14l-.06,0-18.69.87-5.06-11.93-15.49,5,9.94,23.55,34.43-1.35.07,0Z" transform="translate(-692.33 -455.2)" style="fill:#ebebeb"/><path d="M795.8,539.72,800.57,561l-15.78,10.18,5.15,16.08,28.86-18.93-.6-2.68-6.9-30.9Z" transform="translate(-692.33 -455.2)" style="fill:#fff"/><path d="M762,499.76l5,15.46L729.6,527.17l-1.43-3.37L725,516.21l-1.7-4ZM772,531l4.95,15.45-17,5.46-1.43-3.37L755.25,541l-1.69-4Z" transform="translate(-692.33 -455.2)" style="fill:#ebebeb"/><path id="path118" d="M692.65,495.27l.56,1.53c.28.86,13,27.61,26.77,60.47l25.16,58.54,26.19-.87c14.81-.54,26.41-1.37,26.76-1.44s10-7.53,22.59-15.75c20.11-13.18,21.72-14,21.64-14.84-.12-1.13-27.76-123.19-28.19-124.5l-.45-1-59.53,18.13Z" transform="translate(-692.33 -455.2)" style="fill:#fff"/><path id="path88" d="M771,615.16l-26,1.43-.9-1.13c-.81-1.55-48.67-117.72-49.17-119.29-.19-.59,3.59-2.23,59.16-20,58.68-18.8,59.58-19.64,59.8-18.95,1,3,29.7,126.72,29.5,127.05s-44,29.35-45.53,30.1c-.42.21-10.71.43-25.66,1Zm33.36-36.22c7.63-5,14-9.24,14.07-9.44s-2.11-10.41-4.84-22.78-5.23-23.25-5.41-24.26l-.33-1.84-36.24,11.62,4.92,15.37,19.56-6.27.1,1c.06.55,1,5.09,2.21,10.12,1.25,5.31,2,9.37,1.8,9.74a71.94,71.94,0,0,1-8,5.55l-7.65,4.92,2.51,7.81c1.71,5.35,2.65,7.78,2.95,7.68s6.7-4.23,14.29-9.21Zm.11-67.89c-.94-1.95-12.14-28.46-12.47-29.49-.2-.62-1.66-.22-16.62,4.57L759,491.39l5.15,16.07,7.47-2.09c4.11-1.15,8.45-2.28,9.65-2.52l2.19-.43,2.53,6.13c1.39,3.37,2.85,6.78,3.26,7.58l.73,1.48,15.3-4.9Z" transform="translate(-692.33 -455.2)" style="fill:#eaebec"/><path id="path80" d="M770.65,616.43l-26.91,1-25.18-59.67c-13.89-32.88-25.45-60.46-25.73-61.31l-.5-1.56,122.93-39.39.3.93c.42,1.31,28.7,126.74,28.83,127.86.07.81-2.6,2.69-22.72,15.9-12.54,8.23-23.09,15-23.48,15.12S785.46,615.87,770.65,616.43Zm33.82-37.22c7.77-5.1,14.2-9.48,14.27-9.81s-2.3-11-5.2-23.91-5.31-23.77-5.28-24.17c0-.74-1.5-.32-26.56,7.71l-26.54,8.5-2.71-12.3c-1.47-6.75-2.71-12.32-2.72-12.34s3.88-1.39,8.57-3c7.75-2.72,23.93-7.23,24.63-6.86.26.14,5.73,12.65,6.29,14.42.28.87.41.84,8.34-1.7l8-2.58-.72-1.79c-.41-.94-3.5-8.24-6.88-16.27l-6.1-14.46-31.07,9.84c-24.73,7.83-31.05,9.95-30.92,10.37s.5,2.16.9,4.18c1,4.87,11.47,51.57,11.88,52.85l.32,1,52.84-16.93.27,1.63c.14.9,1.11,5.36,2.18,10a79.65,79.65,0,0,1,1.74,8.67c-.26.49-14.48,9.62-15.46,9.88-.46.14-4.79.42-9.65.63l-8.81.36-1.4-3.37c-.77-1.86-1.91-4.52-2.5-5.91l-1.08-2.52-15.72,5,.49,1.56c.94,2.91,9.14,21.92,9.55,22.1s33.32-1,34.26-1.24c.35-.11,7-4.36,14.78-9.47Z" transform="translate(-692.33 -455.2)" style="fill:#f0be25"/><path id="path78" d="M770.65,616.43l-26.91,1-25.18-59.67c-13.89-32.88-25.45-60.46-25.73-61.31l-.5-1.56,122.93-39.39.3.93c.42,1.31,28.7,126.74,28.83,127.86.07.81-2.6,2.69-22.72,15.9-12.54,8.23-23.09,15-23.48,15.12S785.46,615.87,770.65,616.43Zm43.11-24c9.9-6.49,18.13-12.06,18.32-12.4s-23.32-106.4-24.46-109.82l-.36-1.12L757,485.18l1.86,5.81-14.52,4.65c-11.36,3.64-14.48,4.78-14.36,5.18s.5,2.17.9,4.18c1,4.86,11.49,51.56,11.9,52.84l.32,1,34-10.9,3.84,12c3,9.36,3.74,12.07,3.33,12.18s-4.48.33-9.34.53l-8.81.36-1.42-3.39c-.77-1.87-1.9-4.51-2.5-5.91l-1.07-2.52-15.73,5,.5,1.56c1.43,4.47,9.23,22,9.78,22.14.32.08,8.21-.17,17.53-.53l16.95-.67,2.51,7.82a60.32,60.32,0,0,0,2.78,7.73c.15,0,8.39-5.39,18.29-11.87Zm-61.32-67.09c-1.48-6.7-2.69-12.26-2.57-12.4s3.28-1.32,7.24-2.71l7.09-2.5L772,532.09l-16.86,5.4Z" transform="translate(-692.33 -455.2)" style="fill:#e4a126"/><path d="M815.17,592.65,803.55,462.32H931.23L919.61,592.64l-52.3,14.49Z" transform="translate(-692.33 -455.2)" style="fill:#1572b6"/><path d="M867.39,596.05l42.25-11.71L919.58,473H867.39Z" transform="translate(-692.33 -455.2)" style="fill:#33a9dc"/><path d="M867.39,520.2h21.15L890,503.83H867.39v-16h40.08l-.38,4.3-3.87,44H867.39Z" transform="translate(-692.33 -455.2)" style="fill:#fff"/><path d="M867.48,561.71h-.07l-17.79-4.81-1.16-12.71h-16l2.24,25.09,32.72,9.08h.07Z" transform="translate(-692.33 -455.2)" style="fill:#ebebeb"/><path d="M887.19,535.51l-1.93,21.4-17.87,4.81v16.63l32.78-9.08.24-2.69,2.81-31.07Z" transform="translate(-692.33 -455.2)" style="fill:#fff"/><path d="M867.45,487.84v16H828.84l-.33-3.59-.72-8.09-.39-4.3Zm0,32.36v16H849.81l-.32-3.59-.73-8.09-.38-4.29Z" transform="translate(-692.33 -455.2)" style="fill:#ebebeb"/></svg>