<svg id="Calque_1" data-name="Calque 1" xmlns="http://www.w3.org/2000/svg" viewBox="0 0 373.77 166.77"><path d="M849.28,488.53l85,33.87a25.08,25.08,0,0,1,14,32.6l-32.57,81.73a25.07,25.07,0,0,1-32.6,14l-85-33.87a25.07,25.07,0,0,1-14-32.6l32.57-81.73A25.06,25.06,0,0,1,849.28,488.53Z" transform="translate(-576.35 -485.78)" style="fill:#49021f"/><g id="vlpa"><g id="vlpb"><path d="M860.43,531.87l-22.51,56.49c-.24.6-.63.77-1.12.57l-10.75-4.28c-.5-.2-.61-.56-.37-1.16L848.2,527c.19-.49.55-.6,1-.4l10.69,4.26a.66.66,0,0,1,.5.83A.25.25,0,0,1,860.43,531.87Z" transform="translate(-576.35 -485.78)" style="fill:#f36"/><path d="M869,602.53a29.3,29.3,0,0,1-10.81-7.17,20.51,20.51,0,0,1-5.31-10.76c-.7-4.15,0-8.71,2-13.7a24.19,24.19,0,0,1,19.74-15.4,30.15,30.15,0,0,1,15.15,2.35,10,10,0,0,1,1.13.51c.47.25,1,.47,1.65.79l6.91-17.34a.55.55,0,0,1,.79-.38l11.13,4.44a.53.53,0,0,1,.4.6l0,.11-20.8,52.21c-.4,1-.78,2.11-1.2,3.34s-.73,2.31-1.05,3.27a1,1,0,0,1-.9.66,45.45,45.45,0,0,1-10-.93,51.22,51.22,0,0,1-8.75-2.6Zm9.74-8.83,9.62-24.13a14.32,14.32,0,0,0-1.37-.87c-.58-.29-1.16-.59-1.77-.83a14.6,14.6,0,0,0-6.76-1,13.25,13.25,0,0,0-6.28,2.2,13.07,13.07,0,0,0-4.59,6.24,16.62,16.62,0,0,0-1.32,6,11.52,11.52,0,0,0,.92,4.87,10.09,10.09,0,0,0,2.85,3.68,15.44,15.44,0,0,0,4.27,2.53c.83.33,1.62.58,2.35.81a5,5,0,0,0,2.08.51Z" transform="translate(-576.35 -485.78)" style="fill:#f36"/></g></g><g id="Layer_2" data-name="Layer 2"><g id="Surfaces"><g id="Photo_Surface" data-name="Photo Surface"><g id="Outline_no_shadow" data-name="Outline no shadow"><path d="M595.79,511l87.06-18a24.34,24.34,0,0,1,28.81,18.92L729,595.54a24.35,24.35,0,0,1-18.93,28.81l-87.06,18a24.35,24.35,0,0,1-28.81-18.93l-17.34-83.69A24.36,24.36,0,0,1,595.79,511Z" transform="translate(-576.35 -485.78)" style="fill:#001e36"/></g></g></g><g id="Outlined_Mnemonics_Logos" data-name="Outlined Mnemonics Logos"><g id="Ps"><path d="M621.34,601.79l-12-57.8c-.08-.39,0-.65.43-.73,1-.2,1.85-.38,3.14-.71s2.74-.62,4.24-1,3.13-.71,4.86-1.13,3.42-.76,5.1-1.11a33.55,33.55,0,0,1,11.93-.66,20.48,20.48,0,0,1,8.48,3.05,18.2,18.2,0,0,1,5.43,5.55,22,22,0,0,1,2.8,7q1.51,7.25-.89,12.66a19.59,19.59,0,0,1-7.62,8.72A37,37,0,0,1,635,580.21c-1.35.28-2.25.47-2.82.53s-1.36.22-2.43.44l3.74,18a.72.72,0,0,1-.46.91l-.22,0-10.68,2.21C621.71,602.47,621.44,602.3,621.34,601.79Zm2.39-50.11,3.91,18.87c.8-.1,1.54-.2,2.21-.34l3-.62a21.45,21.45,0,0,0,6.25-2.34,9.93,9.93,0,0,0,4-3.93,8.88,8.88,0,0,0,.54-6.15,9.36,9.36,0,0,0-2.33-4.73,8.29,8.29,0,0,0-4.59-2.39,16.92,16.92,0,0,0-6.86.25c-1.46.3-2.75.57-3.81.85a12.47,12.47,0,0,0-2.29.53Z" transform="translate(-576.35 -485.78)" style="fill:#31a8ff"/><path d="M692.19,553.61a20,20,0,0,0-5.78-.79,30.35,30.35,0,0,0-6.45.57,11.31,11.31,0,0,0-3.28,1.09,2.91,2.91,0,0,0-1.51,1.48,3.08,3.08,0,0,0-.14,1.61,2.59,2.59,0,0,0,.87,1.35,6.46,6.46,0,0,0,2.22,1.12c1.43.4,2.91.74,4.37,1a41.7,41.7,0,0,1,9.5,2.3,13.35,13.35,0,0,1,5.4,3.75,12.35,12.35,0,0,1,2.49,5.51,13.29,13.29,0,0,1-.64,7.93,14.43,14.43,0,0,1-5.26,6.3,26.27,26.27,0,0,1-9.79,3.9,38.55,38.55,0,0,1-7.79.85,23.16,23.16,0,0,1-6.1-.61,1.12,1.12,0,0,1-.84-.94l-2-9.77a.59.59,0,0,1,.12-.55.42.42,0,0,1,.51,0,24.54,24.54,0,0,0,7.54,1.31,26.47,26.47,0,0,0,6.8-.53,11,11,0,0,0,4.5-1.75,2.66,2.66,0,0,0,1-2.67,3.06,3.06,0,0,0-1.82-2,24.09,24.09,0,0,0-6-1.5,35.34,35.34,0,0,1-8.81-2.39A14.85,14.85,0,0,1,666,566.3a12.34,12.34,0,0,1-2.48-5.46,13.48,13.48,0,0,1,.51-7.2,14.16,14.16,0,0,1,4.82-6.39,22.36,22.36,0,0,1,9.54-4,48.85,48.85,0,0,1,7.07-.94,20.49,20.49,0,0,1,5.09.29,1,1,0,0,1,.67.39,2.9,2.9,0,0,1,.25.65l1.9,9.16a.69.69,0,0,1-.17.62A1.54,1.54,0,0,1,692.19,553.61Z" transform="translate(-576.35 -485.78)" style="fill:#31a8ff"/></g></g></g><g id="vlpa-2" data-name="vlpa"><g id="vlpb-2" data-name="vlpb"><g id="vlpc"><g id="vlpd"><path d="M717.53,485.78h88.91a24.34,24.34,0,0,1,24.37,24.37v85.47A24.34,24.34,0,0,1,806.44,620H717.53a24.35,24.35,0,0,1-24.38-24.37V510.15A24.35,24.35,0,0,1,717.53,485.78Z" transform="translate(-576.35 -485.78)" style="fill:#300"/></g></g></g><g id="vlpe"><g id="vlpf"><path d="M759.69,566.08H738.35L734,579.56a1,1,0,0,1-1.09.8H722.12c-.63,0-.8-.34-.63-1L740,526.16c.17-.58.34-1.21.57-1.9a19.88,19.88,0,0,0,.35-3.72.57.57,0,0,1,.45-.64h14.86c.46,0,.69.18.75.46l20.93,59.08c.17.63,0,.92-.57.92h-12a.87.87,0,0,1-.92-.63l-4.7-13.65Zm-18-11.65h14.57c-.35-1.2-.81-2.63-1.32-4.13s-1-3.21-1.55-4.93-1.09-3.5-1.66-5.28-1.09-3.44-1.55-5.1-.86-3.1-1.26-4.47h-.12a72,72,0,0,1-1.95,7.39c-.86,2.76-1.72,5.63-2.64,8.49S742.54,552,741.68,554.43Z" transform="translate(-576.35 -485.78)" style="fill:#ff9a00"/><path d="M790.66,529.94a7.07,7.07,0,0,1-5.1-2,7.41,7.41,0,0,1-1.95-5.27,6.77,6.77,0,0,1,2.06-5.11,7.34,7.34,0,0,1,5.11-2,6.88,6.88,0,0,1,5.22,2,7.88,7.88,0,0,1-.12,10.38,6.72,6.72,0,0,1-5.22,2Zm-6.42,49.79V535.56c0-.57.23-.8.74-.8h11.36c.52,0,.75.29.75.8v44.17c0,.63-.23.92-.75.92H785.1A.81.81,0,0,1,784.24,579.73Z" transform="translate(-576.35 -485.78)" style="fill:#ff9a00"/></g></g></g></svg>