<svg id="Calque_1" data-name="Calque 1" xmlns="http://www.w3.org/2000/svg" viewBox="0 0 297.07 166.76"><g id="Layer_2" data-name="Layer 2"><g id="Surfaces"><g id="Photo_Surface" data-name="Photo Surface"><g id="Outline_no_shadow" data-name="Outline no shadow"><path d="M741.45,335.88l89.86-18.61a25.15,25.15,0,0,1,29.75,19.54L879,423.19a25.13,25.13,0,0,1-19.54,29.74l-89.86,18.62A25.15,25.15,0,0,1,739.8,452l-17.89-86.38A25.15,25.15,0,0,1,741.45,335.88Z" transform="translate(-721.38 -316.74)" style="fill:#001e36"/></g></g></g><g id="Outlined_Mnemonics_Logos" data-name="Outlined Mnemonics Logos"><g id="Ps"><path d="M767.82,429.64,755.46,370c-.08-.4,0-.67.45-.75,1-.21,1.92-.4,3.24-.73s2.83-.65,4.38-1,3.23-.73,5-1.16,3.52-.79,5.26-1.15a34.61,34.61,0,0,1,12.32-.68,21.06,21.06,0,0,1,8.75,3.14,18.82,18.82,0,0,1,5.6,5.74,22.47,22.47,0,0,1,2.9,7.26q1.54,7.47-.92,13.07a20.32,20.32,0,0,1-7.87,9A38.36,38.36,0,0,1,782,407.37c-1.39.28-2.32.48-2.91.54s-1.4.23-2.5.46L780.39,427a.74.74,0,0,1-.47.94l-.23.05-11,2.28C768.21,430.35,767.93,430.16,767.82,429.64Zm2.47-51.72,4,19.48c.83-.11,1.59-.21,2.29-.35l3.07-.64a22.17,22.17,0,0,0,6.45-2.43,10.11,10.11,0,0,0,4.12-4.05,9.14,9.14,0,0,0,.56-6.35,9.69,9.69,0,0,0-2.4-4.88,8.55,8.55,0,0,0-4.74-2.46,17.34,17.34,0,0,0-7.09.25c-1.5.32-2.84.59-3.93.88a13.4,13.4,0,0,0-2.36.55Z" transform="translate(-721.38 -316.74)" style="fill:#31a8ff"/><path d="M841,379.91a20.94,20.94,0,0,0-6-.82,30.88,30.88,0,0,0-6.65.59,11.73,11.73,0,0,0-3.4,1.13,3,3,0,0,0-1.56,1.53,3.15,3.15,0,0,0-.13,1.66,2.55,2.55,0,0,0,.89,1.39,6.59,6.59,0,0,0,2.29,1.15c1.48.42,3,.77,4.52,1.06a42.79,42.79,0,0,1,9.8,2.39,13.77,13.77,0,0,1,5.58,3.86,12.86,12.86,0,0,1,2.57,5.7,13.8,13.8,0,0,1-.67,8.18,14.82,14.82,0,0,1-5.42,6.5,27.19,27.19,0,0,1-10.11,4,41.06,41.06,0,0,1-8,.88,24.26,24.26,0,0,1-6.3-.63,1.19,1.19,0,0,1-.87-1l-2.08-10.09a.63.63,0,0,1,.12-.57.45.45,0,0,1,.53-.05,25.19,25.19,0,0,0,7.78,1.35,27.28,27.28,0,0,0,7-.54,11.48,11.48,0,0,0,4.65-1.81,2.77,2.77,0,0,0,1.06-2.76,3.15,3.15,0,0,0-1.87-2,25.13,25.13,0,0,0-6.25-1.55,36.26,36.26,0,0,1-9.1-2.47,15.25,15.25,0,0,1-5.43-4,12.65,12.65,0,0,1-2.55-5.63,13.92,13.92,0,0,1,.51-7.43,14.52,14.52,0,0,1,5-6.59,22.94,22.94,0,0,1,9.84-4.16,50.81,50.81,0,0,1,7.3-1,20.47,20.47,0,0,1,5.26.3,1.06,1.06,0,0,1,.69.4,3.44,3.44,0,0,1,.26.67l1.95,9.45a.72.72,0,0,1-.17.64A1.64,1.64,0,0,1,841,379.91Z" transform="translate(-721.38 -316.74)" style="fill:#31a8ff"/></g></g></g><g id="Layer_2-2" data-name="Layer 2"><g id="Surfaces-2" data-name="Surfaces"><g id="UI_UX_Surface" data-name="UI UX Surface"><g id="Outline_no_shadow-2" data-name="Outline no shadow"><path d="M912.59,324.32l87.8,25.62a25.06,25.06,0,0,1,17.05,31.1l-24.63,84.4a25.06,25.06,0,0,1-31.1,17.05l-87.8-25.62a25.06,25.06,0,0,1-17-31.1l24.63-84.4A25.06,25.06,0,0,1,912.59,324.32Z" transform="translate(-721.38 -316.74)" style="fill:#470137"/></g></g></g><g id="Outlined_Mnemonics_Logos-2" data-name="Outlined Mnemonics Logos"><g id="Xd"><path d="M949.83,373l-25.17,23.08,9.45,35a1,1,0,0,1-.09.71c-.12.21-.29,0-.65-.06l-13-3.79c-.91-.26-1.52-.5-1.75-1.18-.49-2.73-1.06-5.42-1.56-8.14s-1.12-5.43-1.77-8.26-1.29-5.67-1.93-8.56l-.11,0c-1.9,2.09-3.91,4.14-5.93,6.2s-4,4.11-6,6.13-4,4.05-6,6c-.39.5-.86.43-1.48.25l-12.46-3.64c-.23-.07-.43,0-.35-.29a.81.81,0,0,1,.3-.59l26-23.75L898.76,358c-.11-.28-.1-.52,0-.6a.66.66,0,0,1,.63-.06l12.86,3.75a3.56,3.56,0,0,1,.76.34,1.79,1.79,0,0,1,.42.68c.36,2.75.9,5.55,1.49,8.36s1.26,5.59,2,8.39,1.22,5.52,1.7,8.3l.11,0c1.92-2.14,3.87-4.22,5.81-6.23s3.94-4,5.94-6,4-4.08,5.88-6a1,1,0,0,1,.5-.46,1.11,1.11,0,0,1,.77.1l12,3.49a.54.54,0,0,1,.51.57c0,.08-.14.27-.29.35Z" transform="translate(-721.38 -316.74)" style="fill:#ff61f6"/><path d="M958.57,440.39a29.48,29.48,0,0,1-11.44-6.1,20.59,20.59,0,0,1-6.3-10.2c-1.09-4.07-.85-8.67.65-13.83a24.25,24.25,0,0,1,6.6-11,24.59,24.59,0,0,1,11.57-6.15c4.61-1.06,9.68-.74,15.29.89a11.46,11.46,0,0,1,1.17.41c.5.2,1.06.37,1.73.62l5.22-17.9c.12-.39.35-.57.75-.46l11.5,3.36a.53.53,0,0,1,.45.56l0,.11L980,434.59c-.3,1-.57,2.17-.88,3.43s-.5,2.37-.73,3.35a1,1,0,0,1-.83.75,45.45,45.45,0,0,1-10,0A51.68,51.68,0,0,1,958.57,440.39Zm8.86-9.71,7.27-24.93a15,15,0,0,0-1.45-.72c-.61-.24-1.21-.48-1.84-.66a14.48,14.48,0,0,0-6.83-.4,13.19,13.19,0,0,0-6,2.79,13,13,0,0,0-4,6.65,16.2,16.2,0,0,0-.74,6.11,11.54,11.54,0,0,0,1.37,4.77,10.22,10.22,0,0,0,3.19,3.39,16,16,0,0,0,4.49,2.11c.85.24,1.66.42,2.41.58A5.18,5.18,0,0,0,967.43,430.68Z" transform="translate(-721.38 -316.74)" style="fill:#ff61f6"/></g></g></g></svg>