<svg id="séparateurs" xmlns="http://www.w3.org/2000/svg" viewBox="0 0 1383 108"><path d="M1784.15,1127.6q-11.89,1.83-23.83,3.48-23.86,3.29-48,5.67t-48.27,3.53c-16.1.77-32.24,1.06-48.25.62l-12-.49-11.89-.8c-3.94-.34-7.85-.75-11.78-1.12s-8-.92-12-1.39l-48.21-5.78c-32.16-3.85-64.35-7.69-96.6-11.32l-48.37-5.46-48.42-5.32c-32.28-3.52-64.59-7-97-10.19s-64.81-6.17-97.25-9.08l-48.68-4.27L1035,1081.5q-48.71-4.15-97.47-8c-32.53-2.52-65.08-5-97.85-6.68-16.39-.82-32.83-1.4-49.4-1.47-8.29,0-16.6.16-25,.58l-6.31.42c-2.11.16-4.23.39-6.34.58-4.12.43-8.1.9-12.15,1.37q-48.4,5.65-96.34,12.66t-95.64,14.62q-23.84,3.87-47.54,8.06-11.85,2.08-23.69,4.24t-23.59,4.48q-19,3.64-37.7,7.77v3.78c13.19-2.39,26.48-4.58,39.77-6.76q11.88-1.92,23.8-3.75l23.84-3.67c15.9-2.42,31.84-4.73,47.78-7.07q47.82-7,95.76-13.58l95.9-13.13,11.95-1.6c1.93-.23,3.83-.48,5.78-.68l5.88-.53c7.91-.61,15.95-.91,24-1.17,16.17-.41,32.46-.32,48.76,0,32.6.68,65.24,2.3,97.75,4.52,65,4.49,129.72,11.09,194.13,18.52l48.28,5.66,48.25,5.77,96.51,11.48,96.45,11.7q48.23,5.91,96.54,11.53c16.12,1.85,32.23,3.72,48.42,5.46,4,.43,8.07.88,12.18,1.28s8.35.75,12.53,1.07,8.37.47,12.55.67l12.54.33c16.71.22,33.35-.33,49.84-1.36s32.86-2.66,49.08-4.59,32.31-4.27,48.25-6.9c8-1.32,15.91-2.68,23.81-4.14q6.35-1.17,12.65-2.4v-5.3C1794.06,1126.06,1789.11,1126.85,1784.15,1127.6Z" transform="translate(-416 -1042)" style="fill:#4f241a"/><path d="M1756.72,1101.33,1656,1090.73l-50.26-5.41c-16.73-1.83-33.45-3.66-50-5.64-8.23-1-16.6-2-24.46-3.23l-1.49-.23-1.37-.25-2.74-.5c-2.06-.38-4.34-.87-6.43-1.19s-4.24-.7-6.34-1l-6.32-.88c-16.82-2.18-33.65-4-50.52-5.66s-33.76-3.29-50.67-4.8-33.81-3-50.72-4.52q-50.75-4.42-101.62-8.48c-8.49-.65-17-1.31-25.48-1.91q-6.37-.48-12.76-.93c-4.25-.3-8.51-.6-12.77-.87-17-1.12-34.13-2.18-51.39-2.81-8.63-.32-17.29-.54-26.19-.37l-3.34.06-3.43.17c-2.24.16-4.48.32-6.65.54s-4.33.45-6.49.68-4.27.51-6.37.8c-16.88,2.23-33.22,5-49.47,8s-32.3,6-48.31,9.22-31.92,6.46-47.82,9.76-31.74,6.64-47.56,10l-47.41,10.16c-31.6,6.78-63.05,13.71-94.54,20.55q-23.6,5.16-47.25,10.19c-15.77,3.34-31.59,6.63-47.46,9.66-7.91,1.49-15.93,2.94-23.71,4l-2.85.34c-.89.07-1.76.17-2.67.23s-1.84.12-2.78.15l-2.86.07c-3.87,0-7.88-.12-11.9-.36s-8.08-.6-12.14-1-8.11-.93-12.16-1.48c-8.09-1.1-16.15-2.39-24.14-3.81-16-2.85-31.8-6.06-47.43-9.52q-11.73-2.6-23.35-5.35t-23.17-5.57q-31.86-7.89-63.2-16.39v2.17c5,1.55,10,3.09,15,4.61,14.76,4.45,29.66,8.81,44.77,13q11.33,3.14,22.78,6.15t23.12,5.86c15.53,3.79,31.29,7.4,47.52,10.54,8.1,1.58,16.34,3,24.73,4.32,4.21.64,8.45,1.24,12.76,1.76s8.69,1,13.16,1.3,9,.57,13.75.57l3.56,0c1.2,0,2.42-.1,3.63-.15s2.45-.18,3.68-.28l3.43-.37c8.84-1.1,17-2.5,25.27-3.94,16.38-2.9,32.39-6.1,48.36-9.35s31.82-6.6,47.65-10q47.43-10.17,94.48-20.71l47.11-10.46q23.55-5.22,47.15-10.37c31.49-6.83,63.06-13.57,94.87-19.86q11.94-2.35,24-4.55c8-1.47,16-2.87,24.1-4.1,2-.31,4-.59,6.06-.88s4-.55,6.06-.76,4-.43,6-.61l3-.21,3.08-.12c8.23-.31,16.75-.27,25.24-.12,17,.32,34.06,1,51.08,1.88,4.26.21,8.52.45,12.77.69s8.51.47,12.76.73c8.5.52,17,1.1,25.49,1.67q50.92,3.54,101.49,8.34t100.49,11c16.61,2.07,33.21,4.22,49.43,6.72,4,.65,8,1.3,11.89,2,1,.17,1.9.36,2.8.56l2.78.58,3.26.67,1.63.33,1.57.27c8.43,1.49,16.71,2.64,25.08,3.79,33.4,4.44,67,8,100.64,11.5s67.38,6.7,101.14,9.82q22.23,2,44.46,4v-5.18Z" transform="translate(-416 -1042)" style="fill:#734230"/></svg>